<?xml version="1.0" standalone="yes"?>

<svg version="1.1" viewBox="0.0 0.0 16.0 16.0" fill="none" stroke="none" stroke-linecap="square" stroke-miterlimit="10" xmlns="http://www.w3.org/2000/svg" xmlns:xlink="http://www.w3.org/1999/xlink"><clipPath id="p.0"><path d="m0 0l16.0 0l0 16.0l-16.0 0l0 -16.0z" clip-rule="nonzero"></path></clipPath><g clip-path="url(#p.0)"><path fill="#000000" fill-opacity="0.0" d="m0 0l16.0 0l0 16.0l-16.0 0z" fill-rule="nonzero"></path><path fill="#000000" fill-opacity="0.0" d="m3.4771981 5.5441275l4.2834644 0l0 4.031496l-4.2834644 0z" fill-rule="nonzero"></path><path fill="#000000" fill-opacity="0.0" d="m19.183506 2.5206692l2.3307076 0l0 3.9370081l-2.3307076 0z" fill-rule="nonzero"></path><path fill="#ffffff" d="m19.496006 6.360669l0 -2.859375l1.265625 0q0.390625 0 0.578125 0.078125q0.203125 0.078125 0.328125 0.28125q0.125 0.1875 0.125 0.421875q0 0.296875 -0.203125 0.515625q-0.203125 0.203125 -0.609375 0.265625q0.15625 0.0625 0.234375 0.140625q0.15625 0.140625 0.3125 0.375l0.5 0.78125l-0.484375 0l-0.375 -0.59375q-0.171875 -0.265625 -0.28125 -0.390625q-0.09375 -0.140625 -0.1875 -0.1875q-0.078125 -0.0625 -0.171875 -0.09375q-0.0625 0 -0.203125 0l-0.453125 0l0 1.265625l-0.375 0zm0.375 -1.59375l0.828125 0q0.25 0 0.390625 -0.046875q0.15625 -0.0625 0.234375 -0.171875q0.078125 -0.125 0.078125 -0.265625q0 -0.203125 -0.15625 -0.328125q-0.140625 -0.140625 -0.46875 -0.140625l-0.90625 0l0 0.953125z" fill-rule="nonzero"></path><path fill="#000000" fill-opacity="0.0" d="m26.80741 2.5206692l2.3307076 0l0 3.9370081l-2.3307076 0z" fill-rule="nonzero"></path><path fill="#ffffff" d="m27.104284 6.360669l0 -2.859375l1.078125 0q0.328125 0 0.515625 0.09375q0.203125 0.078125 0.3125 0.265625q0.109375 0.171875 0.109375 0.375q0 0.171875 -0.09375 0.34375q-0.09375 0.15625 -0.296875 0.25q0.25 0.078125 0.390625 0.265625q0.140625 0.1875 0.140625 0.4375q0 0.203125 -0.09375 0.375q-0.078125 0.171875 -0.203125 0.265625q-0.125 0.09375 -0.3125 0.140625q-0.1875 0.046875 -0.453125 0.046875l-1.09375 0zm0.375 -1.65625l0.625 0q0.25 0 0.359375 -0.03125q0.140625 -0.046875 0.203125 -0.140625q0.078125 -0.109375 0.078125 -0.265625q0 -0.140625 -0.0625 -0.25q-0.0625 -0.109375 -0.203125 -0.140625q-0.125 -0.046875 -0.421875 -0.046875l-0.578125 0l0 0.875zm0 1.3125l0.71875 0q0.171875 0 0.25 -0.015625q0.140625 -0.015625 0.21875 -0.0625q0.09375 -0.0625 0.140625 -0.15625q0.0625 -0.109375 0.0625 -0.25q0 -0.15625 -0.078125 -0.28125q-0.078125 -0.125 -0.234375 -0.171875q-0.140625 -0.046875 -0.421875 -0.046875l-0.65625 0l0 0.984375z" fill-rule="nonzero"></path><path fill="#ffffff" d="m20.837599 12.668635l5.5433064 0l0 1.984252l-5.5433064 0z" fill-rule="nonzero"></path><path stroke="#ffffff" stroke-width="1.0" stroke-linejoin="round" stroke-linecap="butt" d="m20.837599 12.668635l5.5433064 0l0 1.984252l-5.5433064 0z" fill-rule="nonzero"></path><path fill="#990000" d="m25.991636 12.352874l0 0c0 1.2611227 -1.219759 2.2834654 -2.724409 2.2834654q-1.3622036 0 -2.724409 0q0 -1.1417322 0 -2.2834654l0 0c0 -1.2611217 1.219759 -2.2834644 2.724409 -2.2834644l0 0c1.5046501 0 2.724409 1.0223427 2.724409 2.2834644z" fill-rule="nonzero"></path><path fill="#ffffff" d="m25.55748 2.3720293l-5.5433064 0l0 -1.9842519l5.5433064 0z" fill-rule="nonzero"></path><path stroke="#ffffff" stroke-width="1.0" stroke-linejoin="round" stroke-linecap="butt" d="m25.55748 2.3720293l-5.5433064 0l0 -1.9842519l5.5433064 0z" fill-rule="nonzero"></path><path fill="#0b5394" d="m21.041565 1.3858268l0 0c0 -1.2611227 1.2197609 -2.2834647 2.724409 -2.2834647q1.3622055 0 2.724411 0q0 1.1417322 0 2.2834647l0 0c0 1.2611227 -1.2197609 2.2834644 -2.724411 2.2834644l0 0c-1.5046482 0 -2.724409 -1.0223417 -2.724409 -2.2834644z" fill-rule="nonzero"></path><path fill="#000000" d="m7.3490814E-6 16.0l2.1811023 -16.0l6.5433073 0l-2.1811023 16.0z" fill-rule="nonzero"></path><path fill="#000000" d="m7.3898687 16.0l2.1811018 -16.0l6.5433083 0l-2.1811028 16.0z" fill-rule="nonzero"></path></g></svg>

