<?xml version="1.0" standalone="yes"?>

<svg version="1.1" viewBox="0 0 16 16" fill="none" stroke="none" stroke-linecap="square" stroke-miterlimit="10" xmlns="http://www.w3.org/2000/svg" xmlns:xlink="http://www.w3.org/1999/xlink"><clipPath id="p.0"><path d="m0 0l256.0 0l0 256.0l-256.0 0l0 -256.0z" clip-rule="nonzero"></path></clipPath><g clip-path="url(#p.0)"><path fill="#000000" fill-opacity="0.0" d="m0 0l256.0 0l0 256.0l-256.0 0z" fill-rule="nonzero"></path><path fill="#000000" fill-opacity="0.0" d="m55.63517 88.70604l68.47244 0l0 64.59842l-68.47244 0z" fill-rule="nonzero"></path><path fill="#000000" fill-opacity="0.0" d="m306.9361 40.330708l37.13385 0l0 62.89764l-37.13385 0z" fill-rule="nonzero"></path><path fill="#ffffff" d="m320.96735 110.77071l0 -45.8125l20.3125 0q6.125 0 9.3125 1.234375q3.1875 1.234375 5.09375 4.359375q1.90625 3.125 1.90625 6.90625q0 4.875 -3.15625 8.21875q-3.15625 3.34375 -9.75 4.25q2.40625 1.15625 3.65625 2.28125q2.65625 2.4375 5.03125 6.09375l7.96875 12.46875l-7.625 0l-6.0625 -9.53125q-2.65625 -4.125 -4.375 -6.3125q-1.71875 -2.1875 -3.078125 -3.0625q-1.359375 -0.875 -2.765625 -1.21875q-1.03125 -0.21875 -3.375 -0.21875l-7.03125 0l0 20.34375l-6.0625 0zm6.0625 -25.59375l13.03125 0q4.15625 0 6.5 -0.859375q2.34375 -0.859375 3.5625 -2.75q1.21875 -1.890625 1.21875 -4.109375q0 -3.25 -2.359375 -5.34375q-2.359375 -2.09375 -7.453125 -2.09375l-14.5 0l0 15.15625z" fill-rule="nonzero"></path><path fill="#000000" fill-opacity="0.0" d="m428.91855 40.330708l37.13385 0l0 62.89764l-37.13385 0z" fill-rule="nonzero"></path><path fill="#ffffff" d="m442.60605 110.77071l0 -45.8125l17.1875 0q5.25 0 8.421875 1.390625q3.171875 1.390625 4.96875 4.28125q1.796875 2.890625 1.796875 6.046875q0 2.9375 -1.59375 5.53125q-1.59375 2.59375 -4.8125 4.1875q4.15625 1.21875 6.390625 4.15625q2.234375 2.9375 2.234375 6.9375q0 3.21875 -1.359375 5.984375q-1.359375 2.765625 -3.359375 4.265625q-2.0 1.5 -5.015625 2.265625q-3.015625 0.765625 -7.390625 0.765625l-17.46875 0zm6.0625 -26.5625l9.90625 0q4.03125 0 5.78125 -0.53125q2.3125 -0.6875 3.484375 -2.28125q1.171875 -1.59375 1.171875 -4.0q0 -2.28125 -1.09375 -4.015625q-1.09375 -1.734375 -3.125 -2.375q-2.03125 -0.640625 -6.96875 -0.640625l-9.15625 0l0 13.84375zm0 21.15625l11.40625 0q2.9375 0 4.125 -0.21875q2.09375 -0.375 3.5 -1.25q1.40625 -0.875 2.3125 -2.546875q0.90625 -1.671875 0.90625 -3.859375q0 -2.5625 -1.3125 -4.453125q-1.3125 -1.890625 -3.640625 -2.65625q-2.328125 -0.765625 -6.703125 -0.765625l-10.59375 0l0 15.75z" fill-rule="nonzero"></path><path fill="#ffffff" d="m333.40158 202.69817l88.724396 0l0 31.527557l-88.724396 0z" fill-rule="nonzero"></path><path stroke="#ffffff" stroke-width="1.0" stroke-linejoin="round" stroke-linecap="butt" d="m333.40158 202.69817l88.724396 0l0 31.527557l-88.724396 0z" fill-rule="nonzero"></path><path fill="#990000" d="m415.86618 197.61449l0 0c0 20.195358 -19.509094 36.57399 -43.5748 36.582687q-21.787384 0.007873535 -43.5748 0.01574707q0 -18.283463 0 -36.566925l0 0c0 -20.195358 19.509094 -36.57399 43.5748 -36.582687l0 0c24.065704 -0.00869751 43.5748 16.355835 43.5748 36.551178z" fill-rule="nonzero"></path><path fill="#ffffff" d="m408.91968 37.95247l-88.724396 0l0 -31.527557l88.724396 0z" fill-rule="nonzero"></path><path stroke="#ffffff" stroke-width="1.0" stroke-linejoin="round" stroke-linecap="butt" d="m408.91968 37.95247l-88.724396 0l0 -31.527557l88.724396 0z" fill-rule="nonzero"></path><path fill="#0b5394" d="m336.66504 22.204725l0 0c0 -20.195358 19.509125 -36.573982 43.5748 -36.58268q21.787415 -0.007874489 43.57483 -0.015748024q0 18.283464 0 36.56693l0 0c0 20.195358 -19.509125 36.57398 -43.57483 36.582676l0 0c-24.065674 0.00869751 -43.5748 -16.355824 -43.5748 -36.551178z" fill-rule="nonzero"></path><path fill="#000000" d="m1.19160104E-4 256.0l34.83465 -256.0l104.50394 0l-34.83464 256.0z" fill-rule="nonzero"></path><path fill="#000000" d="m118.2379 256.0l34.83464 -256.0l104.50394 0l-34.83464 256.0z" fill-rule="nonzero"></path></g></svg>

